<?xml version="1.0" standalone="no"?>
<svg xmlns:xlink="http://www.w3.org/1999/xlink" id="wave" style="transform:rotate(180deg); transition: 0.3s" viewBox="0 0 1440 150" version="1.1" xmlns="http://www.w3.org/2000/svg"><defs><linearGradient id="sw-gradient-0" x1="0" x2="0" y1="1" y2="0"><stop stop-color="rgba(250, 174, 72, 1)" offset="0%"/><stop stop-color="rgba(246, 125, 49, 1)" offset="100%"/></linearGradient></defs><path style="transform:translate(0, 0px); opacity:1" fill="url(#sw-gradient-0)" d="M0,45L34.3,57.5C68.6,70,137,95,206,107.5C274.3,120,343,120,411,107.5C480,95,549,70,617,67.5C685.7,65,754,85,823,85C891.4,85,960,65,1029,62.5C1097.1,60,1166,75,1234,70C1302.9,65,1371,40,1440,45C1508.6,50,1577,85,1646,82.5C1714.3,80,1783,40,1851,22.5C1920,5,1989,10,2057,15C2125.7,20,2194,25,2263,35C2331.4,45,2400,60,2469,55C2537.1,50,2606,25,2674,32.5C2742.9,40,2811,80,2880,85C2948.6,90,3017,60,3086,60C3154.3,60,3223,90,3291,92.5C3360,95,3429,70,3497,52.5C3565.7,35,3634,25,3703,22.5C3771.4,20,3840,25,3909,35C3977.1,45,4046,60,4114,67.5C4182.9,75,4251,75,4320,67.5C4388.6,60,4457,45,4526,42.5C4594.3,40,4663,50,4731,55C4800,60,4869,60,4903,60L4937.1,60L4937.1,150L4902.9,150C4868.6,150,4800,150,4731,150C4662.9,150,4594,150,4526,150C4457.1,150,4389,150,4320,150C4251.4,150,4183,150,4114,150C4045.7,150,3977,150,3909,150C3840,150,3771,150,3703,150C3634.3,150,3566,150,3497,150C3428.6,150,3360,150,3291,150C3222.9,150,3154,150,3086,150C3017.1,150,2949,150,2880,150C2811.4,150,2743,150,2674,150C2605.7,150,2537,150,2469,150C2400,150,2331,150,2263,150C2194.3,150,2126,150,2057,150C1988.6,150,1920,150,1851,150C1782.9,150,1714,150,1646,150C1577.1,150,1509,150,1440,150C1371.4,150,1303,150,1234,150C1165.7,150,1097,150,1029,150C960,150,891,150,823,150C754.3,150,686,150,617,150C548.6,150,480,150,411,150C342.9,150,274,150,206,150C137.1,150,69,150,34,150L0,150Z"/></svg>